<?xml version="1.0" encoding="utf-8"?>
<!-- Generator: Adobe Illustrator 28.0.0, SVG Export Plug-In . SVG Version: 6.00 Build 0)  -->
<svg version="1.1" id="Layer_1" xmlns="http://www.w3.org/2000/svg" xmlns:xlink="http://www.w3.org/1999/xlink" x="0px" y="0px"
	 viewBox="0 0 433.7 246.9" style="enable-background:new 0 0 433.7 246.9;" xml:space="preserve">
<style type="text/css">
	.st0{fill:#FFFFFF20;}
</style>
<g>
	<path class="st0" d="M433.7,35.6c-7.2,2.9-14.3,5.7-21.5,8.6C373.1,60.1,334.1,76,295,91.8c-0.4,0.2-0.8,0.3-1.4,0.2
		C340.3,71,387,49.9,433.7,28.8C433.7,31.1,433.7,33.4,433.7,35.6z"/>
	<path class="st0" d="M0,214.7c3.5-1.4,7-2.7,10.5-4.1c40.8-16.6,81.6-33.1,122.4-49.7c0.6-0.2,1.2-0.4,1.9-0.5
		c-5,2.2-9.9,4.5-14.9,6.7C80.4,185,40.8,202.9,1.3,220.7c-0.4,0.2-0.9,0.3-1.3,0.5C0,219,0,216.9,0,214.7z"/>
	<path class="st0" d="M433.7,191.8c-8.6-2.6-17.2-5.2-25.7-7.8c-35.1-10.7-70.2-21.4-105.4-32.2c-0.5-0.1-0.9-0.3-1.3-0.7
		c4.2,1.1,8.3,2.2,12.5,3.3c39.5,10.5,78.9,21,118.4,31.5c0.5,0.1,1,0.2,1.5,0.2C433.7,188.1,433.7,189.9,433.7,191.8z"/>
	<path class="st0" d="M73.7,0c7.5,6.9,14.9,13.8,22.4,20.6c20.2,18.5,40.3,36.9,60.5,55.4c0.4,0.4,0.8,0.8,1.1,1.3
		c-0.3-0.2-0.6-0.4-0.9-0.6C126.6,51.5,96.5,26.4,66.3,1.2c-0.4-0.4-0.8-0.8-1.2-1.2C67.9,0,70.8,0,73.7,0z"/>
	<path class="st0" d="M0,62.6c5.4,1.7,10.7,3.4,16.1,5c36.2,11.1,72.4,22.1,108.6,33.1c0.3,0.1,0.7,0.2,1,0.5c-0.2,0-0.5,0-0.7,0
		C83.5,90.1,42,79.1,0.6,68.1C0.4,68,0.2,67.9,0,67.8C0,66.1,0,64.3,0,62.6z"/>
	<path class="st0" d="M347.9,246.9c-26.3-24-52.5-48.1-78.8-72.1c0-0.1,0.1-0.1,0.1-0.2c0.3,0.2,0.5,0.4,0.8,0.6
		c27.9,23.3,55.8,46.6,83.7,69.8c0.7,0.6,1.3,1.3,1.9,1.9C353,246.9,350.5,246.9,347.9,246.9z"/>
	<path class="st0" d="M433.7,116.8c-10.3,0.4-20.6,0.8-30.9,1.2c-16,0.6-32.1,1.2-48.1,1.8c-12.5,0.5-25.1,0.9-37.6,1.3
		c-3.1,0.1-6.3,0-9.4,0.2c6.3-0.4,12.5-0.9,18.8-1.3c9.7-0.7,19.3-1.4,29-2.1c7.9-0.6,15.8-1.1,23.8-1.7c9.6-0.7,19.2-1.4,28.9-2
		c8.5-0.6,17.1-1.1,25.6-1.7C433.7,113.9,433.7,115.4,433.7,116.8z"/>
	<path class="st0" d="M433.7,7.4c-0.6,0.3-1.2,0.5-1.8,0.8c-32.2,17-64.3,34.1-96.5,51.2c-0.5,0.3-1,0.5-1.6,0.5
		c0.3-0.2,0.6-0.4,0.9-0.6c32.8-18.9,65.6-37.9,98.3-56.8c0.2-0.1,0.5-0.2,0.7-0.3C433.7,3.9,433.7,5.7,433.7,7.4z"/>
	<path class="st0" d="M0,135.7c12.5-0.5,25.1-0.9,37.6-1.4c9.6-0.4,19.2-0.7,28.8-1.1c16-0.6,32-1.2,47.9-1.8c1.7-0.1,3.5,0,5.2,0
		c-6.3,0.4-12.5,0.9-18.8,1.3c-9.7,0.7-19.3,1.4-29,2.1c-9.3,0.7-18.6,1.3-27.9,2c-9.7,0.7-19.4,1.4-29.2,2.1
		c-4.9,0.3-9.8,0.7-14.7,1.1C0,138.6,0,137.1,0,135.7z"/>
	<path class="st0" d="M0,242.3c0.6-0.2,1.1-0.4,1.7-0.7c30.2-16,60.5-32.1,90.7-48.1c0.5-0.3,1-0.5,1.6-0.5
		c-0.5,0.3-0.9,0.6-1.4,0.9C62.5,211.2,32.3,228.6,2.2,246c-0.4,0.3-0.8,0.6-1.2,0.9c-0.5,0-1.1,0.2-1-0.8
		C0.1,244.9,0,243.6,0,242.3z"/>
	<path class="st0" d="M313.2,0c-0.3,0.4-0.5,0.9-0.8,1.3c-19.1,23.8-38.2,47.6-57.4,71.4c-0.1,0.2-0.3,0.3-0.6,0.3
		c0.4-0.5,0.7-1,1.1-1.5c16.9-23.5,33.9-46.9,50.8-70.4c0.3-0.4,0.5-0.8,0.7-1.2C309.1,0,311.1,0,313.2,0z"/>
	<path class="st0" d="M119.3,246.9c3.7-4.6,7.3-9.2,11-13.8c13.8-17.2,27.6-34.4,41.4-51.5c0.3-0.4,0.6-0.8,1.2-1
		c-0.4,0.5-0.7,1-1.1,1.5c-15.3,21.2-30.6,42.3-45.8,63.5c-0.3,0.4-0.5,0.9-0.8,1.3C123.2,246.9,121.2,246.9,119.3,246.9z"/>
	<path class="st0" d="M30.7,0c9.5,6.7,19,13.5,28.5,20.2c15.6,11,31.1,21.9,46.7,32.9c0.4,0.3,0.7,0.5,1,1c-0.3-0.2-0.6-0.3-0.9-0.5
		C79,36,52,18.5,25,1c-0.4-0.3-0.8-0.7-1.2-1C26.1,0,28.4,0,30.7,0z"/>
	<path class="st0" d="M433.7,212.2c-3.7-1.5-7.5-2.9-11.2-4.4c-25.5-10.2-51-20.5-76.4-30.7c-0.4-0.2-0.8-0.4-1.2-0.8
		c0.4,0.1,0.7,0.2,1.1,0.3c29.1,10.5,58.1,21.1,87.2,31.6c0.2,0.1,0.4,0.2,0.6,0.3C433.7,209.7,433.7,211,433.7,212.2z"/>
	<path class="st0" d="M0,42.8C28,54,56,65.3,84,76.6c0,0.1-0.1,0.2-0.1,0.3c-0.8-0.3-1.5-0.5-2.3-0.8C54.9,66.3,28,56.6,1.2,46.8
		c-0.4-0.1-0.8-0.2-1.2-0.4C0,45.2,0,44,0,42.8z"/>
	<path class="st0" d="M388.8,246.9c-0.4-0.4-0.8-0.7-1.3-1.1c-21.8-15.3-43.5-30.7-65.3-46c-0.5-0.3-0.9-0.7-1.3-1.2
		c0.4,0.2,0.8,0.5,1.2,0.7c23.8,15.4,47.6,30.9,71.4,46.4c0.5,0.3,0.9,0.8,1.4,1.2C392.9,246.9,390.8,246.9,388.8,246.9z"/>
	<path class="st0" d="M433.7,241c-24-12.8-48-25.6-71.9-38.4c-3.3-1.8-6.7-3.6-9.9-5.6c0.6,0.3,1.2,0.5,1.8,0.8
		c26.2,12.9,52.3,25.8,78.5,38.8c0.5,0.2,1,0.4,1.6,0.7C433.7,238.5,433.7,239.8,433.7,241z"/>
	<path class="st0" d="M433.7,56.7c-5.3,1.6-10.7,3.2-16,4.8c-22.9,7-45.8,14-68.7,21.1c-0.1,0-0.3,0.1-0.5-0.1
		c0.5-0.2,1-0.4,1.5-0.6c27.4-9.4,54.7-18.8,82.1-28.3c0.5-0.2,1-0.4,1.6-0.6C433.7,54.2,433.7,55.5,433.7,56.7z"/>
	<path class="st0" d="M198,0c0.4,3.2,0.8,6.3,1.2,9.5c1.1,9.7,2.2,19.4,3.3,29.1c1,8.7,1.9,17.3,2.9,26c0.1,1.2,0.3,2.4,0.1,3.7
		c-4-22.7-7.9-45.5-11.9-68.2C195.1,0,196.5,0,198,0z"/>
	<path class="st0" d="M0,14.9c7.8,4.1,15.6,8.2,23.3,12.4c17.8,9.5,35.6,19,53.5,28.5c0.5,0.3,1,0.6,1.5,1.1
		c-5.1-2.5-10.1-5-15.2-7.5C42.5,39.2,22,29,1.4,18.9C1,18.7,0.5,18.5,0,18.3C0,17.1,0,16,0,14.9z"/>
	<path class="st0" d="M0,194.2c4.3-1.3,8.7-2.5,13-3.9c21.5-6.6,43-13.2,64.5-19.8c0.2-0.1,0.5-0.1,0.8,0.1c-26.1,9-52.2,18-78.4,27
		C0,196.5,0,195.4,0,194.2z"/>
	<path class="st0" d="M229.2,246.9c-0.5-4.2-1-8.4-1.5-12.6c-1.1-9.7-2.2-19.4-3.3-29c-0.8-7-1.6-14-2.1-21.1
		c0.7,4.3,1.5,8.5,2.2,12.8c2.9,16.6,5.8,33.3,8.7,49.9C231.9,246.9,230.6,246.9,229.2,246.9z"/>
	<path class="st0" d="M345.1,0c-0.3,0.4-0.6,0.8-1,1.2c-15.9,14.9-31.8,29.9-47.8,44.8c-0.3,0.2-0.5,0.5-1,0.5
		c0.4-0.4,0.7-0.8,1.1-1.1c14.3-14.7,28.7-29.4,43-44.1c0.4-0.4,0.7-0.8,1.1-1.3C342,0,343.5,0,345.1,0z"/>
	<path class="st0" d="M389.4,0c-0.4,0.3-0.8,0.7-1.2,1c-19.4,13.6-38.7,27.2-58.1,40.8c-0.3,0.2-0.6,0.4-1,0.4
		c0.4-0.3,0.7-0.6,1.1-0.9c17.6-13.3,35.3-26.7,52.9-40c0.5-0.4,1-0.8,1.5-1.3C386.3,0,387.8,0,389.4,0z"/>
	<path class="st0" d="M106.3,0c0.4,0.5,0.7,1.1,1.1,1.6c11.6,14,23.2,28,34.8,42c0.2,0.2,0.3,0.4,0.4,0.7c-0.3-0.2-0.6-0.5-0.8-0.7
		c-12.7-14-25.4-27.9-38.2-41.9c-0.5-0.5-0.9-1.1-1.4-1.7C103.6,0,104.9,0,106.3,0z"/>
	<path class="st0" d="M89.2,246.9c0.3-0.4,0.5-0.8,0.8-1.1c14.6-13.7,29.1-27.3,43.7-41c0.1-0.1,0.3-0.2,0.5-0.2
		c-13.8,14.1-27.5,28.2-41.3,42.2C91.7,246.9,90.5,246.9,89.2,246.9z"/>
	<path class="st0" d="M433.7,171c-10.1-2.2-20.2-4.4-30.4-6.5c-12.2-2.6-24.5-5.2-36.7-7.8c-0.4-0.1-0.9-0.2-1.3-0.6
		c3.2,0.6,6.5,1.1,9.7,1.7c18.6,3.4,37.3,6.8,55.9,10.1c0.9,0.2,1.8,0.4,2.7,0.6C433.7,169.4,433.7,170.2,433.7,171z"/>
	<path class="st0" d="M433.7,132.3c-23.3-0.9-46.6-1.8-69.9-2.6c0,0,0-0.1,0-0.1c6.2,0,12.3,0,18.5,0c16.6,0.1,33.1,0.2,49.7,0.3
		c0.6,0,1.1,0,1.7,0C433.7,130.6,433.7,131.5,433.7,132.3z"/>
	<path class="st0" d="M47.1,246.9c0.3-0.3,0.5-0.7,0.9-1c16.7-11.8,33.4-23.5,50.1-35.3c0.1-0.1,0.3-0.1,0.5-0.1
		c-0.4,0.3-0.8,0.7-1.2,1c-15.4,11.6-30.8,23.3-46.2,34.9c-0.2,0.1-0.3,0.3-0.5,0.4C49.6,246.9,48.3,246.9,47.1,246.9z"/>
	<path class="st0" d="M433.7,98.5c-5,0.6-10,1.2-15,1.8c-9.4,1.1-18.7,2.2-28.1,3.3c-6.6,0.8-13.1,1.5-19.7,2.3
		c-0.4,0-0.7,0-1.1-0.2c3.6-0.5,7.2-1.1,10.8-1.6c11.6-1.7,23.3-3.4,34.9-5.1c6.1-0.9,12.1-1.8,18.2-2.6
		C433.7,97.1,433.7,97.8,433.7,98.5z"/>
	<path class="st0" d="M0,83c20.4,4.4,40.9,8.7,61.3,13.1c0,0.1,0,0.2-0.1,0.3c-2.7-0.5-5.5-1-8.2-1.4c-17.3-3.1-34.6-6.3-51.8-9.4
		c-0.4-0.1-0.8,0-1.2,0C0,84.7,0,83.9,0,83z"/>
	<path class="st0" d="M0,120.8c7.9,0.3,15.8,0.5,23.7,0.8c10.1,0.4,20.1,0.8,30.2,1.1c3.8,0.1,7.6,0,11.4,0c0,0.2,0,0.3,0,0.5
		c-6.5,0-13,0-19.4,0C31,123.1,16.1,123,1.2,123c-0.4,0-0.8,0-1.2,0C0,122.3,0,121.5,0,120.8z"/>
	<path class="st0" d="M316.9,246.9c-5.6-6.8-11.3-13.7-16.9-20.5c-4.6-5.5-9.2-11-13.7-16.6c-0.2-0.2-0.4-0.5-0.4-0.9
		c0.4,0.4,0.8,0.8,1.2,1.2c10.7,11.7,21.3,23.4,32,35.1c0.4,0.5,0.8,1,1.3,1.6C319.2,246.9,318,246.9,316.9,246.9z"/>
	<path class="st0" d="M0,153.4c3.4-0.3,6.8-0.7,10.1-1c9.3-1.1,18.6-2.2,28-3.3c6.9-0.8,13.7-1.6,20.6-2.4c0.5-0.1,0.9-0.1,1.4,0.1
		c-5.1,0.8-10.2,1.5-15.3,2.2c-11.6,1.7-23.1,3.4-34.7,5.1c-3.4,0.5-6.7,1-10.1,1.4C0,154.8,0,154.1,0,153.4z"/>
	<path class="st0" d="M433.7,78.4c-10.2,2.1-20.4,4.2-30.6,6.3c-7.1,1.5-14.2,3-21.3,4.5c-0.2,0-0.4,0-0.6-0.1
		c17.5-4.2,35-8.3,52.5-12.5C433.7,77.1,433.7,77.8,433.7,78.4z"/>
	<path class="st0" d="M281.6,0c-0.2,0.4-0.3,0.8-0.5,1.1c-5.9,10.6-11.8,21.2-17.7,31.7c-0.1,0.3-0.3,0.5-0.7,0.6
		c0.2-0.5,0.5-1.1,0.7-1.6c5-10.2,10.1-20.3,15.1-30.5c0.2-0.4,0.4-0.9,0.5-1.4C279.9,0,280.8,0,281.6,0z"/>
	<path class="st0" d="M0,173.2c14.1-2.9,28.3-5.9,42.4-8.8c0.9-0.2,1.8-0.4,2.8-0.3c-3.8,0.9-7.6,1.8-11.4,2.7
		c-10.8,2.6-21.7,5.1-32.5,7.7c-0.4,0.1-0.8,0.1-1.2,0.2C0,174.2,0,173.7,0,173.2z"/>
	<path class="st0" d="M222.1,0c-0.4,5.4-0.8,10.8-1.3,16.2c-0.5,6.4-1.1,12.7-1.7,19.1c0-1.8,0-3.6,0-5.3c0.3-9.4,0.5-18.9,0.8-28.3
		c0-0.6,0.2-1.1,0.3-1.6C220.9,0,221.5,0,222.1,0z"/>
	<path class="st0" d="M170.7,0c2.1,6.6,4.2,13.2,6.3,19.8c1.4,4.3,2.8,8.6,3.9,13c-1.6-4.1-3.1-8.2-4.7-12.3
		c-2.6-6.8-5.2-13.7-7.7-20.5C169.2,0,170,0,170.7,0z"/>
	<path class="st0" d="M433.7,150.9c-14.6-1.8-29.1-3.6-43.7-5.4c0-0.1,0-0.2,0-0.2c3,0.3,6,0.5,9.1,0.8c8.3,0.8,16.5,1.6,24.8,2.3
		c3.3,0.3,6.6,0.6,9.9,0.9C433.7,149.8,433.7,150.4,433.7,150.9z"/>
	<path class="st0" d="M149.6,246.9c0.1-0.4,0.2-0.8,0.4-1.1c5.1-9.1,10.2-18.3,15.3-27.4c0.1-0.2,0.2-0.4,0.5-0.5
		c-4.8,9.7-9.6,19.3-14.4,29C150.9,246.9,150.2,246.9,149.6,246.9z"/>
	<path class="st0" d="M0,102.5c5,0.6,9.9,1.3,14.9,1.9c7.9,1,15.7,1.9,23.6,3.1c-3.1-0.3-6.2-0.6-9.3-0.9
		c-9.2-0.9-18.5-1.7-27.7-2.6c-0.5,0-0.9,0-1.4,0C0,103.6,0,103.1,0,102.5z"/>
	<path class="st0" d="M206.3,246.9c0.3-4.3,0.6-8.6,1-13c0.4-5.2,0.9-10.4,1.5-15.5c0,0.6,0,1.3,0,1.9c-0.2,8.4-0.4,16.7-0.7,25.1
		c0,0.5-0.1,1-0.2,1.5C207.3,246.9,206.8,246.9,206.3,246.9z"/>
	<path class="st0" d="M255.6,246.9c-1.2-3.5-2.4-7.1-3.6-10.6c-1.6-4.7-3.1-9.5-4.6-14.2c-0.2-0.5-0.3-1-0.2-1.5
		c2.1,5.4,4.1,10.8,6.2,16.3c1.3,3.4,2.5,6.7,3.8,10.1C256.6,246.9,256.1,246.9,255.6,246.9z"/>
	<path class="st0" d="M139.7,0c4,7.1,8,14.2,12,21.2c0.3,0.5,0.5,1,0.5,1.5c-0.2-0.2-0.4-0.5-0.5-0.7c-4.3-6.9-8.7-13.9-13-20.8
		c-0.2-0.4-0.4-0.8-0.5-1.3C138.7,0,139.2,0,139.7,0z"/>
	<path class="st0" d="M285,246.9c-3.4-6-6.8-11.9-10.2-17.9c0.1-0.1,0.2-0.1,0.3-0.2c3.7,6,7.4,12.1,11.2,18.1
		C285.8,246.9,285.4,246.9,285,246.9z"/>
	<path class="st0" d="M250.9,0c-2,6.4-3.9,12.8-5.9,19.1c-0.1,0-0.2-0.1-0.3-0.1c1.7-6.4,3.3-12.7,5-19.1C250.1,0,250.5,0,250.9,0z"
		/>
	<path class="st0" d="M178.7,246.9c1.4-4.3,2.7-8.7,4.1-13c0.1,0,0.2,0.1,0.3,0.1c-1.1,4.3-2.3,8.6-3.4,12.9
		C179.4,246.9,179.1,246.9,178.7,246.9z"/>
</g>
</svg>
