<?xml version="1.0" encoding="utf-8"?>
<!-- Generator: Adobe Illustrator 28.0.0, SVG Export Plug-In . SVG Version: 6.00 Build 0)  -->
<svg version="1.1" id="Layer_1" xmlns="http://www.w3.org/2000/svg" xmlns:xlink="http://www.w3.org/1999/xlink" x="0px" y="0px"
	 viewBox="0 0 185.1 231.2" style="enable-background:new 0 0 185.1 231.2;" xml:space="preserve">
<style type="text/css">
	.st0{fill:#F16522;}
	.st1{opacity:0.1;enable-background:new    ;}
	.st2{fill:#FFFFFF;}
	.st3{fill:#26324E;}
</style>
<g>
	<path class="st0" d="M119.3,0h-54c-2.8,0-5.4,0.5-7.9,1.3c-9.6,3.3-16.6,12.4-16.6,23.2v48.2c0,15.2,13.7,26.7,28.7,24.2l54-16.4
		c11.8-2,20.4-12.2,20.4-24.2v-24v-7.8C143.8,11,132.8,0,119.3,0z"/>
	<path class="st1" d="M119.3,0h-54c-2.8,0-5.4,0.5-7.9,1.3c0.5,5.4,2.9,10.7,7.1,14.9l34.1,34.1c10.7,10.7,28.6,9.2,37.4-3.2
		l7.9-14.9v-7.8C143.8,11,132.8,0,119.3,0z"/>
	<path class="st0" d="M91.2,93.6c-2.2,0-4.1,0.8-5.5,2.2c-1.4,1.4-2.2,3.3-2.2,5.5s0.8,4.1,2.2,5.5c1.4,1.4,3.3,2.3,5.5,2.3
		s4.1-0.9,5.5-2.3s2.3-3.3,2.3-5.5s-0.9-4.1-2.3-5.5S93.3,93.6,91.2,93.6z"/>
	<path class="st0" d="M109,88.7c-2.2,0-4.1,0.8-5.5,2.2s-2.3,3.3-2.3,5.5s0.9,4.1,2.3,5.5s3.3,2.3,5.5,2.3s4.1-0.9,5.5-2.3
		s2.2-3.3,2.2-5.5s-0.8-4.1-2.2-5.5S111.2,88.7,109,88.7z"/>
	<path class="st2" d="M68.5,23c-2.3,4.2-3.1,9.3-1.7,14.2l1.3,4.5c1.4,5,4.8,8.9,9,11.2c4.2,2.4,9.3,3.1,14.2,1.7l7.1-2
		c1.3-0.4,2.5-0.2,3.5,0.4c1,0.6,1.9,1.5,2.2,2.7l1.3,4.6c0.7,2.4-0.7,4.9-3.2,5.6l-32.7,9.4c-3.8,1.1-5.9,5-4.8,8.8l0,0
		c1.1,3.8,5,5.9,8.8,4.8l32.7-9.4c5-1.4,8.9-4.7,11.2-8.9c2.4-4.2,3.1-9.2,1.7-14.3l-1.3-4.6c-1.4-4.9-4.7-8.8-9-11.1
		c-4.2-2.3-9.2-3.1-14.3-1.7l-7.1,2c-2.4,0.7-4.9-0.7-5.6-3.2l-1.3-4.5c-0.7-2.4,0.7-4.9,3.1-5.6l29.4-8.4c3.8-1.1,5.9-5,4.8-8.8
		l0,0c-1.1-3.8-5-5.9-8.8-4.8L79.7,14C74.8,15.4,70.9,18.8,68.5,23z"/>
</g>
<g>
	<path class="st3" d="M20.9,145.9c0.8,0,1.6-0.3,2.2-0.9c0.6-0.6,0.9-1.3,0.9-2.2c0-0.8-0.3-1.6-0.9-2.2c-0.6-0.6-1.3-0.9-2.2-0.9
		c-0.9,0-1.6,0.3-2.2,0.9c-0.6,0.6-0.9,1.3-0.9,2.2s0.3,1.6,0.9,2.2C19.3,145.6,20.1,145.9,20.9,145.9z"/>
	<path class="st3" d="M26.8,164.2c0,1-0.9,1.9-1.9,1.9H8.1c-1,0-1.9-0.9-1.9-1.9v-8.7h-6v8.7c0,2.2,0.9,4.1,2.3,5.6s3.4,2.3,5.6,2.3
		h16.8c2.2,0,4.1-0.9,5.6-2.3c1.4-1.4,2.3-3.4,2.3-5.6v-13.6h-6V164.2z"/>
	<path class="st3" d="M11.9,145.9c0.9,0,1.6-0.3,2.2-0.9c0.6-0.6,0.9-1.3,0.9-2.2c0-0.8-0.3-1.6-0.9-2.2c-0.6-0.6-1.3-0.9-2.2-0.9
		s-1.6,0.3-2.2,0.9c-0.6,0.6-0.9,1.3-0.9,2.2s0.3,1.6,0.9,2.2C10.3,145.6,11,145.9,11.9,145.9z"/>
	<path class="st3" d="M42.2,174.8c0,1-0.9,1.9-1.9,1.9h-5.9v6h5.9c2.1,0,4.1-0.9,5.6-2.3c1.4-1.4,2.3-3.4,2.3-5.6v-24.2h-6
		L42.2,174.8z"/>
	<path class="st3" d="M81.9,152.2h-9.2c-0.6,0-1-0.2-1.4-0.6c-0.4-0.3-0.6-0.8-0.6-1.3v-2.5c0-0.5,0.2-1,0.6-1.3
		c0.4-0.4,0.8-0.6,1.4-0.6h11.1v-6H72.7c-2.2,0-4.1,0.9-5.6,2.3c-1.5,1.4-2.4,3.4-2.4,5.6v2.5c0,2.2,0.9,4.1,2.4,5.6
		c1.4,1.5,3.4,2.3,5.6,2.3h9.2c0.5,0,1,0.2,1.4,0.6c0.3,0.4,0.6,0.8,0.6,1.4v4.1c0,1-0.9,1.9-1.9,1.9H64.1H64h-2.8
		c-0.5,0-1-0.2-1.3-0.6c-0.4-0.3-0.6-0.8-0.6-1.3V140h-6v24.3c0,2.2,0.9,4.1,2.3,5.6c1.4,1.5,3.4,2.3,5.6,2.3H64h0.1h17.7
		c2.2,0,4.1-0.9,5.6-2.3c1.4-1.4,2.3-3.4,2.3-5.6v-4.1c0-2.2-0.9-4.1-2.3-5.6C86,153.1,84,152.2,81.9,152.2z"/>
	<path class="st3" d="M117.7,164.2c0,1-0.7,1.9-1.6,1.9h-2.8h-0.1h-2v-15.5h-6v24.3c0,1-0.9,1.9-1.9,1.9h-5.9v6h5.9
		c2.2,0,4.1-0.9,5.6-2.3c1.4-1.4,2.3-3.4,2.3-5.6V172h2h0.1h2.8c2.1,0,4-0.9,5.3-2.3c1.4-1.4,2.2-3.4,2.2-5.6v-13.6h-6L117.7,164.2
		L117.7,164.2z"/>
	<path class="st3" d="M120.6,176.8c-0.8,0-1.6,0.3-2.2,0.9c-0.6,0.6-0.9,1.3-0.9,2.2c0,0.8,0.3,1.6,0.9,2.2c0.6,0.6,1.3,0.9,2.2,0.9
		c0.9,0,1.6-0.3,2.2-0.9c0.6-0.6,0.9-1.3,0.9-2.2s-0.3-1.6-0.9-2.2S121.5,176.8,120.6,176.8z"/>
	<path class="st3" d="M178.4,150.6v13.6c0,1-0.9,1.9-1.9,1.9h-1.2c-0.5,0-1-0.2-1.3-0.6c-0.4-0.3-0.6-0.8-0.6-1.3v-13.6h-6v13.6
		c0,1-0.9,1.9-1.9,1.9h-1.2c-1.1,0-1.9-0.9-1.9-1.9v-13.6h-6v13.6c0,1.2-0.9,1.9-1.9,1.9h-1.6h-0.1h-2v-7.6c0-2.2-0.9-4.1-2.3-5.6
		s-3.4-2.3-5.6-2.3h-6.1c-2.1,0-4.1,0.9-5.6,2.3c-1.4,1.4-2.3,3.4-2.3,5.6v5.7c0,2.2,0.9,4.1,2.3,5.6c1.4,1.5,3.4,2.3,5.6,2.3h8.1
		v2.8c0,0.5-0.2,1-0.6,1.4c-0.4,0.4-0.9,0.6-1.4,0.6h-6.2v6h6.2c2.2,0,4.1-0.9,5.6-2.3s2.3-3.4,2.3-5.6v-3h2h0.1h1.6
		c1.8,0,3.5-0.6,5-1.7c1.4,1.1,3,1.7,4.9,1.7h1.2c1.9,0,3.6-0.7,4.9-1.7c1.4,1,3.1,1.7,4.9,1.7h1.2c2.2,0,4.1-0.9,5.6-2.3
		c1.4-1.4,2.3-3.4,2.3-5.6v-13.6h-6.1V150.6z M144.8,166.1h-8.1c-0.5,0-1-0.2-1.3-0.6c-0.4-0.3-0.6-0.8-0.6-1.3v-5.7
		c0-1,0.9-1.9,1.9-1.9h6.1c0.5,0,1,0.2,1.4,0.6c0.4,0.4,0.6,0.8,0.6,1.4L144.8,166.1L144.8,166.1z"/>
</g>
<g>
	<path class="st3" d="M-0.6,217.8l4.3-3c0.6,1.1,1.6,1.9,2.7,2.6c1.2,0.6,2.5,1,4,1c0.7,0,1.3-0.1,2-0.3s1.2-0.5,1.5-0.9
		s0.5-0.9,0.5-1.4s-0.1-0.9-0.4-1.3c-0.3-0.4-0.8-0.8-1.4-1.1c-0.6-0.3-1.5-0.7-2.6-1.1c-1.1-0.4-1.9-0.7-2.3-0.8
		c-1.8-0.7-3.2-1.4-4.1-2.2s-1.5-1.7-1.9-2.6c-0.3-0.9-0.5-1.9-0.5-2.9c0-0.8,0.2-1.7,0.5-2.6c0.3-0.9,0.9-1.7,1.6-2.4
		s1.7-1.3,2.9-1.8s2.5-0.7,4-0.7c2.1,0,3.8,0.4,5.3,1.3s2.7,1.9,3.6,3.1l-4,3c-1.1-1.4-2.7-2.1-4.8-2.1c-1,0-1.8,0.2-2.3,0.6
		c-0.6,0.4-0.9,0.9-0.9,1.6s0.2,1.2,0.6,1.6c0.4,0.4,1.3,0.8,2.8,1.3c1.4,0.5,2.5,0.9,3.1,1.1c2.4,0.9,4.2,2,5.2,3.3
		c1.1,1.2,1.6,2.8,1.6,4.7c0,1.2-0.2,2.3-0.6,3.3s-1,1.9-1.8,2.6c-0.8,0.7-1.9,1.3-3.1,1.7c-1.3,0.4-2.7,0.6-4.4,0.6
		s-3.3-0.3-4.9-0.8c-1.5-0.5-2.8-1.2-3.8-2.2C0.7,219.9,0,218.9-0.6,217.8z"/>
	<path class="st3" d="M23.2,215.5v-11.6H29V215c0,0.6,0.1,1.2,0.3,1.8c0.2,0.6,0.6,1,1.2,1.3s1.2,0.5,2,0.5c0.7,0,1.4-0.2,2-0.5
		s1-0.8,1.2-1.3c0.2-0.6,0.3-1.2,0.3-1.8v-11.1h5.8v11.6c0,1-0.2,2-0.5,3s-0.9,1.9-1.7,2.7s-1.8,1.4-3,1.9s-2.6,0.7-4.2,0.7
		c-1.3,0-2.5-0.2-3.6-0.5s-2.1-0.9-3-1.6c-0.9-0.7-1.5-1.6-2-2.6C23.4,218.1,23.2,216.9,23.2,215.5z"/>
	<path class="st3" d="M45.5,230.8V204h5.7v2.5c0.3-0.8,1-1.5,2-2.1c1.1-0.6,2.3-0.8,3.8-0.8c1.3,0,2.6,0.3,3.8,0.8s2.2,1.2,3.1,2.2
		c0.9,0.9,1.6,2,2,3.2c0.5,1.2,0.7,2.5,0.7,3.9s-0.2,2.7-0.7,3.9s-1.2,2.3-2,3.2c-0.9,0.9-1.9,1.6-3.1,2.2c-1.2,0.5-2.4,0.8-3.8,0.8
		c-0.7,0-1.5-0.1-2.3-0.3s-1.6-0.5-2.2-1c-0.7-0.5-1.1-1-1.3-1.6v10L45.5,230.8L45.5,230.8z M50.9,213.6c0,1,0.3,1.9,0.9,2.7
		c0.6,0.8,1.3,1.4,2.1,1.7s1.5,0.5,2.2,0.5c1.4,0,2.6-0.5,3.5-1.4s1.4-2.1,1.4-3.4s-0.5-2.5-1.4-3.4s-2.1-1.4-3.5-1.4
		c-0.6,0-1.4,0.2-2.2,0.5s-1.5,0.9-2.1,1.7C51.2,211.8,50.9,212.7,50.9,213.6z"/>
	<path class="st3" d="M68.8,213.7v-0.2c0-1.5,0.3-2.9,0.8-4.1c0.5-1.3,1.3-2.4,2.2-3.3c0.9-0.9,2.1-1.6,3.3-2.1
		c1.3-0.5,2.7-0.7,4.2-0.7c1.4,0,2.8,0.3,4,0.8s2.3,1.2,3.2,2.1c0.9,0.9,1.6,2,2,3.2c0.5,1.2,0.7,2.5,0.7,3.8l-0.1,1.8H74.5
		c0.1,0.8,0.3,1.6,0.9,2.2c0.5,0.6,1.2,1,2,1.3c0.8,0.2,1.6,0.3,2.3,0.3c0.7,0,1.5-0.1,2.3-0.3s1.6-0.7,2.5-1.5l3.3,3.2
		c-2.3,2.4-5.1,3.5-8.4,3.5c-1.5,0-3-0.2-4.3-0.7s-2.5-1.2-3.4-2c-0.9-0.9-1.7-1.9-2.2-3.2C69,216.6,68.8,215.2,68.8,213.7z
		 M74.6,211.4h8.9c0-0.4-0.1-0.9-0.4-1.4s-0.8-0.9-1.5-1.3c-0.7-0.4-1.5-0.6-2.3-0.6c-1.2,0-2.3,0.3-3.2,0.9
		C75.1,209.7,74.7,210.5,74.6,211.4z"/>
	<path class="st3" d="M92.1,223.3v-19.4h5.7v2.7c0.4-1,1.2-1.7,2.2-2.3c1-0.5,2.2-0.8,3.5-0.8c0.4,0,0.9,0,1.5,0.1v5.4
		c-0.6-0.1-1.2-0.2-1.9-0.2c-1.6,0-2.9,0.4-3.8,1.3c-0.9,0.9-1.4,2.1-1.4,3.7v9.5H92.1z"/>
	<path class="st3" d="M107.3,209.9c0-1.9,0.4-3.7,1.1-5.5c0.7-1.7,1.8-3.2,3.1-4.4c1.3-1.2,2.9-2.2,4.6-2.9c1.8-0.7,3.6-1,5.6-1
		c1,0,2.2,0.1,3.5,0.4c1.3,0.3,2.6,0.8,3.9,1.7c1.3,0.8,2.5,1.8,3.4,2.9l-4,3.4c-0.8-0.9-1.9-1.7-3.1-2.2s-2.4-0.8-3.8-0.8
		c-1.2,0-2.3,0.2-3.3,0.6c-1.1,0.4-2,1-2.7,1.8s-1.4,1.7-1.8,2.7s-0.7,2.1-0.7,3.3s0.2,2.3,0.7,3.3c0.4,1,1,1.9,1.8,2.7
		s1.7,1.3,2.7,1.8c1.1,0.4,2.2,0.6,3.3,0.6c1.3,0,2.6-0.3,3.8-0.8c1.2-0.6,2.2-1.3,3.1-2.3l4,3.4c-1.3,1.6-3,2.8-4.8,3.7
		c-1.9,0.9-3.9,1.3-6,1.3c-1.9,0-3.8-0.3-5.6-1c-1.8-0.7-3.3-1.6-4.6-2.9c-1.3-1.3-2.4-2.7-3.1-4.4
		C107.6,213.7,107.3,211.9,107.3,209.9z"/>
	<path class="st3" d="M133.3,213.6c0-1.4,0.2-2.7,0.7-3.9s1.2-2.3,2-3.2c0.9-0.9,1.9-1.6,3.1-2.2c1.2-0.5,2.4-0.8,3.8-0.8
		c0.7,0,1.4,0.1,2.3,0.3c0.8,0.2,1.6,0.5,2.2,1c0.7,0.5,1.1,1,1.3,1.6v-2.5h5.7v19.4h-5.7v-2.5c-0.3,0.8-1,1.5-2,2.1
		c-1.1,0.6-2.3,0.8-3.8,0.8c-1.3,0-2.6-0.3-3.8-0.8s-2.2-1.2-3.1-2.2c-0.9-0.9-1.6-2-2-3.2C133.6,216.3,133.3,215,133.3,213.6z
		 M139.1,213.6c0,1.4,0.5,2.5,1.4,3.4s2.1,1.4,3.5,1.4c0.6,0,1.4-0.2,2.2-0.5s1.5-0.9,2.1-1.7s0.9-1.7,0.9-2.7s-0.3-1.9-0.9-2.7
		c-0.6-0.8-1.3-1.4-2.1-1.7s-1.5-0.5-2.2-0.5c-1.4,0-2.6,0.5-3.5,1.4C139.6,211.1,139.1,212.3,139.1,213.6z"/>
	<path class="st3" d="M158.3,223.3v-19.4h5.7v2.7c0.4-1,1.2-1.7,2.2-2.3c1-0.5,2.2-0.8,3.5-0.8c0.4,0,0.9,0,1.5,0.1v5.4
		c-0.6-0.1-1.2-0.2-1.9-0.2c-1.6,0-2.9,0.4-3.8,1.3c-0.9,0.9-1.4,2.1-1.4,3.7v9.5H158.3z"/>
	<path class="st3" d="M175.3,223.3v-14.2h-2.6v-5.2h2.6v-7.4h5.6v7.4h4.3v5.2h-4.3v14.2H175.3z"/>
</g>
</svg>
